# MagicaVoxel @ Ephtracy

# group
g enemy

# material
mtllib enemy.mtl
usemtl palette

# normals
vn -1 0 0
vn 1 0 0
vn 0 0 1
vn 0 0 -1
vn 0 -1 0
vn 0 1 0

# texcoords
vt 0.748047 0.5
vt 0.841797 0.5

# verts
v -6.5 5 2.5
v -6.5 5 -2.5
v -6.5 12 2.5
v -6.5 12 -2.5
v -5.5 5 4.5
v -5.5 5 2.5
v -5.5 5 -2.5
v -5.5 5 -4.5
v -5.5 12 4.5
v -5.5 12 3.5
v -5.5 12 2.5
v -5.5 12 -2.5
v -5.5 12 -3.5
v -5.5 12 -4.5
v -5.5 13 4.5
v -5.5 13 3.5
v -5.5 13 -3.5
v -5.5 13 -4.5
v -5.5 14 4.5
v -5.5 14 2.5
v -5.5 14 -2.5
v -5.5 14 -4.5
v -4.5 5 5.5
v -4.5 5 4.5
v -4.5 5 -4.5
v -4.5 5 -5.5
v -4.5 12 5.5
v -4.5 12 4.5
v -4.5 12 -4.5
v -4.5 12 -5.5
v -2.5 5 6.5
v -2.5 5 5.5
v -2.5 5 -5.5
v -2.5 5 -6.5
v -2.5 12 6.5
v -2.5 12 5.5
v -2.5 12 -5.5
v -2.5 12 -6.5
v -0.5 3 5.5
v -0.5 3 2.5
v -0.5 3 -2.5
v -0.5 3 -5.5
v -0.5 4 4.5
v -0.5 4 2.5
v -0.5 4 -2.5
v -0.5 4 -4.5
v -0.5 5 5.5
v -0.5 5 4.5
v -0.5 5 -4.5
v -0.5 5 -5.5
v 2.5 3 5.5
v 2.5 3 2.5
v 2.5 3 -2.5
v 2.5 3 -5.5
v 2.5 4 4.5
v 2.5 4 2.5
v 2.5 4 -2.5
v 2.5 4 -4.5
v 2.5 5 6.5
v 2.5 5 5.5
v 2.5 5 4.5
v 2.5 5 -4.5
v 2.5 5 -5.5
v 2.5 5 -6.5
v 2.5 12 6.5
v 2.5 12 5.5
v 2.5 12 -5.5
v 2.5 12 -6.5
v 4.5 5 5.5
v 4.5 5 4.5
v 4.5 5 -4.5
v 4.5 5 -5.5
v 4.5 12 5.5
v 4.5 12 4.5
v 4.5 12 -4.5
v 4.5 12 -5.5
v 5.5 5 4.5
v 5.5 5 2.5
v 5.5 5 -2.5
v 5.5 5 -4.5
v 5.5 9 4.5
v 5.5 9 2.5
v 5.5 9 -2.5
v 5.5 9 -4.5
v 5.5 10 4.5
v 5.5 10 2.5
v 5.5 10 -2.5
v 5.5 10 -4.5
v 5.5 12 4.5
v 5.5 12 3.5
v 5.5 12 2.5
v 5.5 12 -2.5
v 5.5 12 -3.5
v 5.5 12 -4.5
v 5.5 13 4.5
v 5.5 13 3.5
v 5.5 13 -3.5
v 5.5 13 -4.5
v 5.5 14 4.5
v 5.5 14 2.5
v 5.5 14 -2.5
v 5.5 14 -4.5
v 6.5 5 2.5
v 6.5 5 -2.5
v 6.5 6 1.5
v 6.5 6 -1.5
v 6.5 7 1.5
v 6.5 7 -1.5
v 6.5 9 4.5
v 6.5 9 2.5
v 6.5 9 -2.5
v 6.5 9 -4.5
v 6.5 10 4.5
v 6.5 10 2.5
v 6.5 10 -2.5
v 6.5 10 -4.5
v 6.5 12 2.5
v 6.5 12 -2.5
v -2.5 5 6.5
v -2.5 12 6.5
v 2.5 5 6.5
v 2.5 12 6.5
v -4.5 5 5.5
v -4.5 12 5.5
v -2.5 5 5.5
v -2.5 12 5.5
v -0.5 3 5.5
v -0.5 5 5.5
v 2.5 3 5.5
v 2.5 5 5.5
v 2.5 12 5.5
v 4.5 5 5.5
v 4.5 12 5.5
v -5.5 5 4.5
v -5.5 12 4.5
v -5.5 13 4.5
v -5.5 14 4.5
v -4.5 5 4.5
v -4.5 12 4.5
v 4.5 5 4.5
v 4.5 12 4.5
v 5.5 5 4.5
v 5.5 9 4.5
v 5.5 10 4.5
v 5.5 12 4.5
v 5.5 13 4.5
v 5.5 14 4.5
v 6.5 9 4.5
v 6.5 10 4.5
v -5.5 12 3.5
v -5.5 13 3.5
v 5.5 12 3.5
v 5.5 13 3.5
v -6.5 5 2.5
v -6.5 12 2.5
v -5.5 5 2.5
v -5.5 12 2.5
v 5.5 5 2.5
v 5.5 9 2.5
v 5.5 10 2.5
v 5.5 12 2.5
v 6.5 5 2.5
v 6.5 9 2.5
v 6.5 10 2.5
v 6.5 12 2.5
v -5.5 12 -2.5
v -5.5 14 -2.5
v -0.5 3 -2.5
v -0.5 4 -2.5
v 2.5 3 -2.5
v 2.5 4 -2.5
v 5.5 12 -2.5
v 5.5 14 -2.5
v -0.5 4 -4.5
v -0.5 5 -4.5
v 2.5 4 -4.5
v 2.5 5 -4.5
v -0.5 4 4.5
v -0.5 5 4.5
v 2.5 4 4.5
v 2.5 5 4.5
v -5.5 12 2.5
v -5.5 14 2.5
v -0.5 3 2.5
v -0.5 4 2.5
v 2.5 3 2.5
v 2.5 4 2.5
v 5.5 12 2.5
v 5.5 14 2.5
v -6.5 5 -2.5
v -6.5 12 -2.5
v -5.5 5 -2.5
v -5.5 12 -2.5
v 5.5 5 -2.5
v 5.5 9 -2.5
v 5.5 10 -2.5
v 5.5 12 -2.5
v 6.5 5 -2.5
v 6.5 9 -2.5
v 6.5 10 -2.5
v 6.5 12 -2.5
v -5.5 12 -3.5
v -5.5 13 -3.5
v 5.5 12 -3.5
v 5.5 13 -3.5
v -5.5 5 -4.5
v -5.5 12 -4.5
v -5.5 13 -4.5
v -5.5 14 -4.5
v -4.5 5 -4.5
v -4.5 12 -4.5
v 4.5 5 -4.5
v 4.5 12 -4.5
v 5.5 5 -4.5
v 5.5 9 -4.5
v 5.5 10 -4.5
v 5.5 12 -4.5
v 5.5 13 -4.5
v 5.5 14 -4.5
v 6.5 9 -4.5
v 6.5 10 -4.5
v -4.5 5 -5.5
v -4.5 12 -5.5
v -2.5 5 -5.5
v -2.5 12 -5.5
v -0.5 3 -5.5
v -0.5 5 -5.5
v 2.5 3 -5.5
v 2.5 5 -5.5
v 2.5 12 -5.5
v 4.5 5 -5.5
v 4.5 12 -5.5
v -2.5 5 -6.5
v -2.5 12 -6.5
v 2.5 5 -6.5
v 2.5 12 -6.5
v -0.5 3 5.5
v 2.5 3 5.5
v -0.5 3 2.5
v 2.5 3 2.5
v -0.5 3 -2.5
v 2.5 3 -2.5
v -0.5 3 -5.5
v 2.5 3 -5.5
v -2.5 5 6.5
v 2.5 5 6.5
v -4.5 5 5.5
v -2.5 5 5.5
v -0.5 5 5.5
v 2.5 5 5.5
v 4.5 5 5.5
v -5.5 5 4.5
v -4.5 5 4.5
v -0.5 5 4.5
v 2.5 5 4.5
v 4.5 5 4.5
v 5.5 5 4.5
v -6.5 5 2.5
v -5.5 5 2.5
v 5.5 5 2.5
v 6.5 5 2.5
v -6.5 5 -2.5
v -5.5 5 -2.5
v 5.5 5 -2.5
v 6.5 5 -2.5
v -5.5 5 -4.5
v -4.5 5 -4.5
v -0.5 5 -4.5
v 2.5 5 -4.5
v 4.5 5 -4.5
v 5.5 5 -4.5
v -4.5 5 -5.5
v -2.5 5 -5.5
v -0.5 5 -5.5
v 2.5 5 -5.5
v 4.5 5 -5.5
v -2.5 5 -6.5
v 2.5 5 -6.5
v 5.5 9 4.5
v 6.5 9 4.5
v 5.5 9 2.5
v 6.5 9 2.5
v 5.5 9 -2.5
v 6.5 9 -2.5
v 5.5 9 -4.5
v 6.5 9 -4.5
v -5.5 13 4.5
v 5.5 13 4.5
v -5.5 13 3.5
v 5.5 13 3.5
v -5.5 13 -3.5
v 5.5 13 -3.5
v -5.5 13 -4.5
v 5.5 13 -4.5
v -0.5 4 4.5
v 2.5 4 4.5
v -0.5 4 2.5
v 2.5 4 2.5
v -0.5 4 -2.5
v 2.5 4 -2.5
v -0.5 4 -4.5
v 2.5 4 -4.5
v 5.5 10 4.5
v 6.5 10 4.5
v 5.5 10 2.5
v 6.5 10 2.5
v 5.5 10 -2.5
v 6.5 10 -2.5
v 5.5 10 -4.5
v 6.5 10 -4.5
v -2.5 12 6.5
v 2.5 12 6.5
v -4.5 12 5.5
v -2.5 12 5.5
v 2.5 12 5.5
v 4.5 12 5.5
v -5.5 12 4.5
v -4.5 12 4.5
v 4.5 12 4.5
v 5.5 12 4.5
v -5.5 12 3.5
v 5.5 12 3.5
v -6.5 12 2.5
v -5.5 12 2.5
v 5.5 12 2.5
v 6.5 12 2.5
v -6.5 12 -2.5
v -5.5 12 -2.5
v 5.5 12 -2.5
v 6.5 12 -2.5
v -5.5 12 -3.5
v 5.5 12 -3.5
v -5.5 12 -4.5
v -4.5 12 -4.5
v 4.5 12 -4.5
v 5.5 12 -4.5
v -4.5 12 -5.5
v -2.5 12 -5.5
v 2.5 12 -5.5
v 4.5 12 -5.5
v -2.5 12 -6.5
v 2.5 12 -6.5
v -5.5 14 4.5
v 5.5 14 4.5
v -5.5 14 2.5
v 5.5 14 2.5
v -5.5 14 -2.5
v 5.5 14 -2.5
v -5.5 14 -4.5
v 5.5 14 -4.5

# faces
f 3/1/1 2/1/1 1/1/1
f 4/1/1 2/1/1 3/1/1
f 9/1/1 6/1/1 5/1/1
f 10/1/1 6/1/1 9/1/1
f 11/1/1 6/1/1 10/1/1
f 12/1/1 8/1/1 7/1/1
f 13/1/1 8/1/1 12/1/1
f 14/1/1 8/1/1 13/1/1
f 16/1/1 11/1/1 10/1/1
f 17/1/1 13/1/1 12/1/1
f 19/1/1 16/1/1 15/1/1
f 20/1/1 11/1/1 16/1/1
f 20/1/1 16/1/1 19/1/1
f 21/1/1 18/1/1 17/1/1
f 21/1/1 17/1/1 12/1/1
f 22/1/1 18/1/1 21/1/1
f 27/1/1 24/1/1 23/1/1
f 28/1/1 24/1/1 27/1/1
f 29/1/1 26/1/1 25/1/1
f 30/1/1 26/1/1 29/1/1
f 35/1/1 32/1/1 31/1/1
f 36/1/1 32/1/1 35/1/1
f 37/1/1 34/1/1 33/1/1
f 38/1/1 34/1/1 37/1/1
f 43/1/1 40/1/1 39/1/1
f 44/1/1 40/1/1 43/1/1
f 45/1/1 42/1/1 41/1/1
f 46/1/1 42/1/1 45/1/1
f 47/1/1 43/1/1 39/1/1
f 48/1/1 43/1/1 47/1/1
f 49/1/1 42/1/1 46/1/1
f 50/1/1 42/1/1 49/1/1
f 51/1/2 52/1/2 55/1/2
f 55/1/2 52/1/2 56/1/2
f 53/1/2 54/1/2 57/1/2
f 57/1/2 54/1/2 58/1/2
f 51/1/2 55/1/2 60/1/2
f 60/1/2 55/1/2 61/1/2
f 58/1/2 54/1/2 62/1/2
f 62/1/2 54/1/2 63/1/2
f 59/1/2 60/1/2 65/1/2
f 65/1/2 60/1/2 66/1/2
f 63/1/2 64/1/2 67/1/2
f 67/1/2 64/1/2 68/1/2
f 69/1/2 70/1/2 73/1/2
f 73/1/2 70/1/2 74/1/2
f 71/1/2 72/1/2 75/1/2
f 75/1/2 72/1/2 76/1/2
f 77/1/2 78/1/2 81/1/2
f 81/1/2 78/1/2 82/1/2
f 79/1/2 80/1/2 83/1/2
f 83/1/2 80/1/2 84/1/2
f 85/1/2 86/1/2 89/1/2
f 89/1/2 86/1/2 90/1/2
f 90/1/2 86/1/2 91/1/2
f 87/1/2 88/1/2 92/1/2
f 92/1/2 88/1/2 93/1/2
f 93/1/2 88/1/2 94/1/2
f 90/1/2 91/1/2 96/1/2
f 92/1/2 93/1/2 97/1/2
f 95/1/2 96/1/2 99/1/2
f 96/1/2 91/1/2 100/1/2
f 99/1/2 96/1/2 100/1/2
f 97/1/2 98/1/2 101/1/2
f 92/1/2 97/1/2 101/1/2
f 101/1/2 98/1/2 102/1/2
f 103/1/2 104/1/2 105/1/2
f 105/1/2 104/1/2 106/1/2
f 103/1/2 105/1/2 107/1/2
f 105/2/2 106/2/2 107/2/2
f 106/1/2 104/1/2 108/1/2
f 107/2/2 106/2/2 108/2/2
f 103/1/2 107/1/2 110/1/2
f 107/1/2 108/1/2 110/1/2
f 108/1/2 104/1/2 111/1/2
f 110/1/2 108/1/2 111/1/2
f 109/2/2 110/2/2 113/2/2
f 110/1/2 111/1/2 114/1/2
f 113/2/2 110/2/2 114/2/2
f 111/2/2 112/2/2 115/2/2
f 114/1/2 111/1/2 115/1/2
f 115/2/2 112/2/2 116/2/2
f 114/1/2 115/1/2 117/1/2
f 117/1/2 115/1/2 118/1/2
f 121/1/3 120/1/3 119/1/3
f 122/1/3 120/1/3 121/1/3
f 125/1/3 124/1/3 123/1/3
f 126/1/3 124/1/3 125/1/3
f 129/1/3 128/1/3 127/1/3
f 130/1/3 128/1/3 129/1/3
f 132/1/3 131/1/3 130/1/3
f 133/1/3 131/1/3 132/1/3
f 138/1/3 135/1/3 134/1/3
f 139/1/3 135/1/3 138/1/3
f 142/1/3 141/1/3 140/1/3
f 143/1/3 141/1/3 142/1/3
f 144/1/3 141/1/3 143/1/3
f 145/1/3 141/1/3 144/1/3
f 146/1/3 137/1/3 136/1/3
f 147/1/3 137/1/3 146/1/3
f 148/2/3 144/2/3 143/2/3
f 149/2/3 144/2/3 148/2/3
f 152/1/3 151/1/3 150/1/3
f 153/1/3 151/1/3 152/1/3
f 156/1/3 155/1/3 154/1/3
f 157/1/3 155/1/3 156/1/3
f 162/1/3 159/1/3 158/1/3
f 163/1/3 159/1/3 162/1/3
f 164/1/3 161/1/3 160/1/3
f 165/1/3 161/1/3 164/1/3
f 170/1/3 169/1/3 168/1/3
f 171/1/3 169/1/3 170/1/3
f 172/1/3 167/1/3 166/1/3
f 173/1/3 167/1/3 172/1/3
f 176/1/3 175/1/3 174/1/3
f 177/1/3 175/1/3 176/1/3
f 178/1/4 179/1/4 180/1/4
f 180/1/4 179/1/4 181/1/4
f 184/1/4 185/1/4 186/1/4
f 186/1/4 185/1/4 187/1/4
f 182/1/4 183/1/4 188/1/4
f 188/1/4 183/1/4 189/1/4
f 190/1/4 191/1/4 192/1/4
f 192/1/4 191/1/4 193/1/4
f 194/1/4 195/1/4 198/1/4
f 198/1/4 195/1/4 199/1/4
f 196/1/4 197/1/4 200/1/4
f 200/1/4 197/1/4 201/1/4
f 202/1/4 203/1/4 204/1/4
f 204/1/4 203/1/4 205/1/4
f 206/1/4 207/1/4 210/1/4
f 210/1/4 207/1/4 211/1/4
f 212/1/4 213/1/4 214/1/4
f 214/1/4 213/1/4 215/1/4
f 215/1/4 213/1/4 216/1/4
f 216/1/4 213/1/4 217/1/4
f 208/1/4 209/1/4 218/1/4
f 218/1/4 209/1/4 219/1/4
f 215/2/4 216/2/4 220/2/4
f 220/2/4 216/2/4 221/2/4
f 222/1/4 223/1/4 224/1/4
f 224/1/4 223/1/4 225/1/4
f 226/1/4 227/1/4 228/1/4
f 228/1/4 227/1/4 229/1/4
f 229/1/4 230/1/4 231/1/4
f 231/1/4 230/1/4 232/1/4
f 233/1/4 234/1/4 235/1/4
f 235/1/4 234/1/4 236/1/4
f 239/1/5 238/1/5 237/1/5
f 240/1/5 238/1/5 239/1/5
f 243/1/5 242/1/5 241/1/5
f 244/1/5 242/1/5 243/1/5
f 248/1/5 246/1/5 245/1/5
f 249/1/5 246/1/5 248/1/5
f 250/1/5 246/1/5 249/1/5
f 253/1/5 248/1/5 247/1/5
f 253/1/5 249/1/5 248/1/5
f 254/1/5 249/1/5 253/1/5
f 255/1/5 251/1/5 250/1/5
f 256/1/5 251/1/5 255/1/5
f 259/1/5 254/1/5 253/1/5
f 259/1/5 257/1/5 256/1/5
f 259/1/5 256/1/5 255/1/5
f 259/1/5 255/1/5 254/1/5
f 259/1/5 253/1/5 252/1/5
f 260/1/5 257/1/5 259/1/5
f 262/1/5 259/1/5 258/1/5
f 262/1/5 261/1/5 260/1/5
f 262/1/5 260/1/5 259/1/5
f 263/1/5 261/1/5 262/1/5
f 264/1/5 261/1/5 263/1/5
f 265/1/5 261/1/5 264/1/5
f 266/1/5 264/1/5 263/1/5
f 267/1/5 264/1/5 266/1/5
f 268/1/5 264/1/5 267/1/5
f 269/1/5 264/1/5 268/1/5
f 270/1/5 264/1/5 269/1/5
f 271/1/5 264/1/5 270/1/5
f 272/1/5 268/1/5 267/1/5
f 273/1/5 268/1/5 272/1/5
f 274/1/5 268/1/5 273/1/5
f 275/1/5 270/1/5 269/1/5
f 276/1/5 270/1/5 275/1/5
f 277/1/5 274/1/5 273/1/5
f 277/1/5 275/1/5 274/1/5
f 278/1/5 275/1/5 277/1/5
f 281/2/5 280/2/5 279/2/5
f 282/2/5 280/2/5 281/2/5
f 285/2/5 284/2/5 283/2/5
f 286/2/5 284/2/5 285/2/5
f 289/1/5 288/1/5 287/1/5
f 290/1/5 288/1/5 289/1/5
f 293/1/5 292/1/5 291/1/5
f 294/1/5 292/1/5 293/1/5
f 295/1/6 296/1/6 297/1/6
f 297/1/6 296/1/6 298/1/6
f 299/1/6 300/1/6 301/1/6
f 301/1/6 300/1/6 302/1/6
f 303/2/6 304/2/6 305/2/6
f 305/2/6 304/2/6 306/2/6
f 307/2/6 308/2/6 309/2/6
f 309/2/6 308/2/6 310/2/6
f 311/1/6 312/1/6 314/1/6
f 314/1/6 312/1/6 315/1/6
f 313/1/6 314/1/6 318/1/6
f 315/1/6 316/1/6 318/1/6
f 314/1/6 315/1/6 318/1/6
f 318/1/6 316/1/6 319/1/6
f 317/1/6 318/1/6 321/1/6
f 319/1/6 320/1/6 321/1/6
f 318/1/6 319/1/6 321/1/6
f 321/1/6 320/1/6 322/1/6
f 324/1/6 325/1/6 327/1/6
f 325/1/6 326/1/6 327/1/6
f 323/1/6 324/1/6 327/1/6
f 327/1/6 326/1/6 328/1/6
f 328/1/6 326/1/6 329/1/6
f 329/1/6 326/1/6 330/1/6
f 331/1/6 332/1/6 333/1/6
f 333/1/6 332/1/6 334/1/6
f 334/1/6 332/1/6 335/1/6
f 335/1/6 332/1/6 336/1/6
f 334/1/6 335/1/6 337/1/6
f 337/1/6 335/1/6 338/1/6
f 338/1/6 335/1/6 339/1/6
f 339/1/6 335/1/6 340/1/6
f 338/1/6 339/1/6 341/1/6
f 341/1/6 339/1/6 342/1/6
f 343/1/6 344/1/6 345/1/6
f 345/1/6 344/1/6 346/1/6
f 347/1/6 348/1/6 349/1/6
f 349/1/6 348/1/6 350/1/6
